# xmcd
#
# Track frame offsets:
#	150
#	13075
#	29342
#	44702
#	58692
#	76072
#	90610
#	103400
#	116720
#	132355
#	145562
#	160747
#	175482
#	191247
#	206595
#	220462
#	234930
#	250680
#
# Disc length: 3511 seconds
#
# Revision: 3
# Processed by: cddbd v1.4PL0 Copyright (c) Steve Scherf et al.
# Submitted via: audiograbber 1.81.02
#
DISCID=030db512
DTITLE=Various Artist - Die Jahrhundert-Hits der Tanzmusik
DYEAR=1900
DGENRE=Vocal
TTITLE0=Hugo Strasser und sein Tanzorchester - Donauwellen
TTITLE1=Orchester Ambros Seelos - Evening Party
TTITLE2=Orchester Ambros Seelos - Tintarella Di Luna
TTITLE3=Guenter Noris - Wunderland bei Nacht
TTITLE4=Orchester Ambros Seelos - Happy Soca
TTITLE5=Orchester Ambros Seelos - Dancing The Mambo
TTITLE6=Max Greger - La Golondrina
TTITLE7=Orchester Ambros Seelos - Alexanders Ragtime Band
TTITLE8=Orchester Ambros Seelos - Riverboat Blues
TTITLE9=Hugo Strasser und sein Tanzorchester - The Most Beautifull Girl
TTITLE10=Orchester Ambros Seelos - Lambada For Everybody
TTITLE11=Orchester Ambros Seelos - Rocking Tigers
TTITLE12=Guenter Noris - Amazing Grace
TTITLE13=Orchester Ambros Seelos - In The Mood
TTITLE14=Orchester Ambros Seelos - Heal The World
TTITLE15=Max Gregor - Memories
TTITLE16=Orchester Ambros Seelos - Don't Cry For Me Argentina
TTITLE17=Orchester Ambros Seelos - Vamonos
EXTD=ID3G: 28
EXTT0=
EXTT1=
EXTT2=
EXTT3=
EXTT4=
EXTT5=
EXTT6=
EXTT7=
EXTT8=
EXTT9=
EXTT10=
EXTT11=
EXTT12=
EXTT13=
EXTT14=
EXTT15=
EXTT16=
EXTT17=
PLAYORDER=
